<?xml version="1.0" encoding="UTF-8"?><svg id="Layer_2" xmlns="http://www.w3.org/2000/svg" viewBox="0 0 726.25 218.99"><defs><style>.cls-1{fill:#7a7a7a;}</style></defs><g id="Layer_1-2"><g><path class="cls-1" d="M726.25,124.64c-1.63,1.9-3.66,2.47-6.16,2.41-6.53-.15-13.07-.04-19.6-.05-3.65,0-5.07-1.44-5.07-5.14,0-22.97,.05-45.94-.05-68.91-.02-3.76-.39-7.57-1.09-11.27-1.39-7.36-5.08-11.28-10.57-11.85-6.58-.68-12.57,2.9-15.43,9.33-2.6,5.84-3.47,12.06-3.49,18.38-.06,21.2-.02,42.39-.02,63.59,0,4.73-1.14,5.87-5.82,5.87-6.69,0-13.39,.01-20.08,0-3.38,0-4.92-1.48-4.92-4.83-.01-37.8-.01-75.6,0-113.4,0-3.46,1.54-4.98,5.06-4.99,6.29-.03,12.58-.02,18.87,0,3.86,.01,5.27,1.42,5.28,5.22,0,4.99,0,9.97,.46,15.12,.35-.73,.73-1.45,1.06-2.19,2.62-5.79,5.82-11.16,11.01-15.05,18.38-13.77,45.22-2.7,49.04,20.24,.6,3.63,1.02,7.29,1.52,10.94V124.64Z"/><path class="cls-1" d="M153.31,22.07c5.56-12.81,14.66-20.24,28.78-20.72,15.08-.51,24.43,7.43,30.17,21.26,.63-1.31,1.03-2.12,1.41-2.93,10.03-21.44,41.36-24.89,55.49-6.12,4.1,5.45,5.53,11.77,5.81,18.37,.24,5.63,.1,11.28,.1,16.92,0,24.18,0,48.37,0,72.55,0,4.34-1.27,5.6-5.61,5.6-6.62,0-13.23,0-19.85,0-3.87,0-5.36-1.39-5.36-5.17-.02-20.96,0-41.92-.02-62.88,0-5.23,.11-10.47-.19-15.69-.3-5.2-1.83-9.99-7.35-11.99-5.94-2.15-11.44-1.24-16.15,3.18-3.37,3.17-4.65,7.31-5.03,11.73-.37,4.25-.6,8.52-.61,12.78-.06,20.8-.03,41.6-.03,62.4,0,4.37-1.25,5.64-5.57,5.64-6.7,0-13.39,0-20.09,0-3.67,0-5.11-1.44-5.11-5.11,0-23.78,.08-47.56-.08-71.35-.03-4.05-.73-8.19-1.8-12.1-1.48-5.41-5.52-8.18-11.1-8.44-5.45-.25-10,1.52-12.86,6.48-2.31,4.02-3.12,8.47-3.28,12.99-.26,7.08-.32,14.18-.33,21.27-.04,16.85-.01,33.7-.02,50.55,0,4.57-1.16,5.72-5.71,5.72-6.53,0-13.07,0-19.6,0-4.16,0-5.43-1.27-5.43-5.51,0-34.26,0-68.52,0-102.78,0-3.39-.04-6.77,.01-10.16,.05-3.22,1.55-4.75,4.76-4.77,6.61-.05,13.23-.05,19.85,0,3.08,.02,4.6,1.56,4.66,4.63,.06,3.79,.01,7.58,.03,11.37,0,.77,.08,1.53,.12,2.3Z"/><path class="cls-1" d="M365.04,112.98c-2.75,2.35-5.62,5.09-8.77,7.43-11.81,8.78-25.13,9.94-38.91,6.62-10.3-2.48-17.24-9.3-20.4-19.42-1.28-4.09-1.99-8.51-2.08-12.79-.44-20.8,11.18-35.78,32.04-40.62,9.45-2.2,19.21-3.12,28.85-4.49,6.36-.9,5.26,.26,5.31-5.84,.02-2.48-.18-5-.61-7.45-1.47-8.26-7.51-12.93-15.99-12.38-9.87,.65-15.74,6.51-16.99,13.48-.62,3.43-2.16,4.27-5.71,3.91-6.41-.64-12.82-1.33-19.23-2.02-3.13-.34-4.54-2.29-3.91-5.36,2.71-13.35,10.19-23.07,22.72-28.4,16.24-6.91,32.9-7.47,49.51-1.38,13.64,5,20.85,15.19,21.27,29.6,.48,16.59,.48,33.2,.35,49.79-.06,7.46,2.08,13.87,6.59,19.71,4.48,5.79,4.33,6.36-1.22,11.11-4.53,3.88-9.03,7.8-13.57,11.66-2.79,2.37-4.85,2.51-7.41-.12-4.09-4.19-7.88-8.66-11.82-13.04Zm-4.14-46.45c-5.8,.83-11.21,1.19-16.39,2.44-12.67,3.06-18.36,11.65-16.73,24.48,1.37,10.73,11.6,15.83,21.06,10.49,4.56-2.57,7.42-6.59,9.44-11.28,3.51-8.15,2.46-16.74,2.62-26.13Z"/><path class="cls-1" d="M66.9,48.92c-.55-5.22-.66-10.32-1.71-15.21-1.4-6.5-8.88-10.61-16.43-9.57-8.24,1.14-14.14,5.01-15.94,13.73-.6,2.9-2.32,3.9-5.32,3.6-6.49-.66-12.98-1.36-19.47-2.04-3.47-.37-4.75-2.38-3.88-6.22C6.9,20.99,13.65,11.63,25.1,6.44,43.16-1.75,61.62-2.35,79.84,5.92c10.82,4.91,16.41,13.93,17.46,25.67,.42,4.72,.47,9.49,.49,14.24,.06,12.65,.13,25.31-.02,37.96-.09,7.15,1.98,13.41,6.29,19.09,5.01,6.59,4.9,6.71-1.31,12-4.3,3.66-8.55,7.36-12.82,11.05-3.07,2.65-5.14,2.81-7.98-.12-3.97-4.08-7.63-8.46-11.62-12.94-.75,.7-1.87,1.7-2.92,2.75-12.11,12.05-26.83,15.16-43.02,11.86-12.07-2.46-19.83-10.18-22.77-22.11-3.42-13.86-1.71-26.94,7.93-38.14,6.52-7.57,15.17-11.76,24.78-13.56,10.04-1.88,20.23-2.96,30.35-4.38,.47-.07,.94-.15,2.23-.35Zm-.49,17.89c-4.55,.44-8.72,.64-12.82,1.26-14.43,2.18-21.43,10.39-20.62,23.95,.56,9.53,7.62,15.47,16.51,13.7,5.66-1.12,9.55-4.76,12.42-9.59,5.33-8.96,4.39-18.87,4.51-29.33Z"/><path class="cls-1" d="M565.68,129.63c-20.04-.21-35.9-11.1-44.11-30.59-5.62-13.34-7.11-27.31-6.06-41.64,.85-11.54,3.64-22.51,9.43-32.64,16.91-29.58,55.45-29.03,73.84-10.52,8.25,8.31,13.21,18.39,15.75,29.68,4.42,19.61,3.9,38.92-5.11,57.28-7.21,14.7-18.6,24.5-35.11,27.52-2.84,.52-5.75,.62-8.63,.92Zm18.96-63.48c-.16-.03-.33-.06-.49-.08-.24-4.98-.09-10.02-.81-14.94-.88-6.01-1.74-12.21-3.95-17.8-4.14-10.44-18.55-11.6-25.09-2.44-2.78,3.9-4.07,8.37-4.78,13.02-1.92,12.58-1.55,25.21-.33,37.8,.57,5.93,1.79,11.8,4.99,17,5.7,9.25,17.9,9.52,23.75,.35,1.86-2.92,3.4-6.35,3.96-9.74,1.28-7.67,1.87-15.45,2.74-23.18Z"/><path class="cls-1" d="M286.46,218.99c-63.98-.84-127.13-24.03-181.11-71.44-.79-.69-1.88-1.34-2.16-2.22-.42-1.32-.76-3.15-.14-4.15,.52-.83,2.47-1.07,3.78-1.03,1.02,.03,2.05,.85,3.02,1.4,38.81,22.11,80.33,36.6,124.33,44.12,19.02,3.25,38.16,5.07,57.46,5.42,52.47,.95,102.8-9.07,151.27-28.95,1.8-.74,3.86-1.12,5.81-1.16,2.17-.04,3.77,1.32,4.6,3.35,.8,1.99,.33,3.87-1.07,5.38-1.03,1.11-2.28,2.04-3.52,2.93-21.8,15.57-45.92,26.28-71.48,33.92-27.11,8.1-54.8,12.34-90.78,12.43Z"/><path class="cls-1" d="M458.61,86.51c5.17,.32,9.99,.45,14.77,.96,9.29,.99,18.14,3.52,26.43,7.95,3.13,1.67,4.55,4.19,4.56,7.62,.02,5.32,.04,10.64,0,15.96-.03,4.29-2.69,5.85-6.56,4.03-25.25-11.92-50.5-12.04-75.72,.1-3.45,1.66-6.33,.42-6.4-3.14-.13-6.84-.25-13.72,.3-20.52,.25-3.03,1.62-6.29,3.37-8.83,13.77-20.06,27.75-39.98,41.66-59.94,.45-.64,.85-1.32,1.45-2.25-1.13-.05-1.97-.12-2.82-.12-11.37,0-22.75,0-34.12,0-4.38,0-5.66-1.26-5.66-5.54,0-4.84-.02-9.67,0-14.51,.01-3.31,1.35-4.67,4.72-4.68,24.28-.02,48.56-.02,72.84,0,3.34,0,4.65,1.37,4.68,4.73,.03,3.39-.21,6.79,.06,10.15,.33,4.05-1.1,7.36-3.35,10.55-6.43,9.07-12.78,18.2-19.16,27.3-6.61,9.44-13.22,18.87-19.83,28.31-.36,.52-.69,1.07-1.21,1.88Z"/><path class="cls-1" d="M448.18,146.83c-9.38,.87-18.77,1.75-28.15,2.62-.72,.07-1.45,.21-2.16,.16-2.27-.16-3.21-1.83-1.91-3.69,.8-1.15,1.99-2.11,3.18-2.89,8.6-5.63,18.19-8.54,28.28-9.88,10.7-1.42,21.39-1.46,31.95,1.2,7.08,1.78,8.55,3.32,8.16,10.57-1.19,21.68-8.37,40.87-24.38,56.17-.75,.71-1.61,1.48-2.56,1.75-.98,.29-2.46,.41-3.09-.14-.6-.52-.77-2.1-.47-3.01,.93-2.91,2.33-5.67,3.25-8.58,2.97-9.34,5.91-18.7,8.64-28.12,.66-2.27,.61-4.78,.61-7.18,0-3.8-2.01-6.35-5.71-7.04-4.1-.76-8.28-1.09-12.43-1.55-1.04-.12-2.1-.02-3.14-.02-.01-.13-.02-.26-.04-.38Z"/></g></g></svg>