<?xml version="1.0" encoding="UTF-8"?><svg id="Layer_2" xmlns="http://www.w3.org/2000/svg" viewBox="0 0 494.78 233.45"><defs><style>.cls-1{fill:#7a7a7a;}</style></defs><g id="Layer_1-2"><g><path class="cls-1" d="M374.59,56.75c-.77-38.97,31.89-60.07,67.21-56.32,17.49,1.86,32.56,8.86,42.63,23.74,24.9,36.79,2.49,84.75-41.76,89.43-20.82,2.2-39.81-2.2-54.6-18.29-9.98-10.87-13.76-24.03-13.48-38.55Zm87.69,.78c.36-17-11.12-29.6-27.33-29.96-16.33-.37-28.38,11.59-28.72,28.5-.36,17.76,10.58,29.94,27.26,30.33,16.76,.39,28.42-11.29,28.79-28.86Z"/><path class="cls-1" d="M69.81,67.41c-12.19,1.92-23.32,3.55-34.38,5.59-1.1,.2-2.44,2.85-2.47,4.38-.22,9.65-.26,19.3-.03,28.95,.09,3.64-.82,5.01-4.71,4.86-7.81-.3-15.65-.2-23.47-.02-3.35,.08-4.73-.87-4.71-4.48C.15,73.43,.13,40.15,.1,6.87c0-2.49,.38-4.14,3.47-4.1,9.48,.11,18.95,.04,29.24,.04,0,2.99,0,5.74,0,8.48,0,10.48,.12,20.97-.04,31.45-.06,3.96,1.3,5.58,5.3,4.79,8.96-1.78,17.92-3.57,26.91-5.19,3.93-.71,5-2.88,4.91-6.65-.23-9.65-.2-19.3-.02-28.95,.03-1.33,1.5-3.75,2.35-3.77,9.93-.27,19.88-.17,30.51-.17v6.9c0,31.95-.07,63.9,.09,95.85,.02,4.24-.87,5.95-5.49,5.71-7.64-.4-15.31-.24-22.97-.06-3.47,.08-4.65-1.12-4.6-4.62,.18-11.31,.06-22.63,.06-33.95,0-1.77,0-3.54,0-5.2Z"/><path class="cls-1" d="M422.39,231.39c-10.45,0-20.38,.08-30.31-.15-.81-.02-2.18-2.19-2.25-3.41-.26-4.81-.11-9.64-.11-14.46,0-28.28,.11-56.55-.13-84.83-.04-4.76,1.45-5.97,5.95-5.77,7.47,.34,14.98,.29,22.46,.02,3.64-.13,4.53,1.23,4.49,4.6-.15,11.81,.13,23.62-.15,35.42-.1,4.15,1.32,5.52,5.17,4.75,9.44-1.88,18.86-3.81,28.3-5.68,3.23-.64,3.54-2.86,3.51-5.6-.09-9.65,.09-19.3-.1-28.94-.07-3.47,.99-4.65,4.55-4.55,7.98,.24,15.97,.19,23.96,0,3.11-.07,4.03,1.07,4.03,4.06-.07,33.43-.08,66.86,0,100.3,0,3.17-.88,4.44-4.25,4.35-7.82-.21-15.65-.24-23.46,.03-3.66,.12-4.92-.83-4.84-4.69,.26-11.64-.02-23.29,.16-34.93,.07-4.42-1.1-5.24-5.57-4.16-8.69,2.11-17.57,3.55-26.44,4.75-3.75,.51-5.13,1.65-5.05,5.52,.22,10.93,.08,21.87,.08,33.37Z"/><path class="cls-1" d="M120.57,231.65c-10.21,0-20,.13-29.76-.21-.89-.03-2.4-3.06-2.41-4.71-.15-27.27-.11-54.55-.11-81.82,0-5.82,.13-11.65-.06-17.46-.11-3.29,1.15-4.32,4.38-4.29,16.8,.17,33.62-.21,50.4,.33,11.39,.36,21.81,3.97,30.15,12.43,15.02,15.23,11.28,39.51-7.7,49.21-8.19,4.19-8.63,5.15-1.62,11.31,3.82,3.36,8.94,5.46,13.78,7.38,2.55,1.01,3.88,1.77,3.82,4.67-.14,6.82-.17,13.64,.05,20.45,.11,3.5-1.25,4.12-4.46,3.91-21.87-1.47-37.32-12.58-47.78-31.34-.73-1.31-1.12-2.89-2.11-3.94-1.21-1.28-2.88-2.13-4.36-3.17-.65,1.49-1.84,2.97-1.87,4.47-.18,8.98-.08,17.96-.1,26.94,0,1.78-.15,3.57-.25,5.85Zm9.59-86.31c-.07,.29-.15,.58-.22,.87-1.99,0-4.08-.36-5.95,.13-1.21,.32-2.94,1.84-2.99,2.89-.28,6.63-.26,13.28-.04,19.92,.03,1.04,1.69,2.94,2.48,2.89,6.38-.48,12.89-.71,19.04-2.27,4.57-1.16,7.16-5.32,7.26-10.3,.1-4.99-2.45-8.84-6.83-10.71-4.01-1.71-8.49-2.31-12.76-3.4Z"/><path class="cls-1" d="M280.09,208.17c9.62-5.08,17.8-9.4,25.94-13.7,8.43,13.57,18.31,18.33,31.53,15.23,2.37-.56,4.79-1.6,6.74-3.03,5.07-3.7,4.96-9.75-.66-12.54-4.68-2.33-10.01-3.45-15.13-4.78-6.76-1.76-13.67-2.95-20.38-4.86-15.08-4.29-23.21-13.29-23.93-25.95-.92-16.2,6.69-29.45,21.22-35,17.52-6.7,35.07-6.3,51.41,3.52,4.93,2.96,8.59,8.11,12.52,12.54,.7,.79,.37,3.92-.4,4.36-6.89,3.95-13.99,7.54-21.05,11.25-4.91-12.03-15.2-14.47-24.54-11.84-3.99,1.12-7.09,3.43-7.36,7.8-.27,4.34,2.86,6.81,6.53,7.8,8.02,2.15,16.19,3.7,24.26,5.7,4.99,1.23,10.1,2.36,14.81,4.34,19.5,8.21,24.67,33.43,10.31,49.11-8.45,9.23-19.31,13.49-31.37,14.74-17.88,1.85-35.07-.11-49.47-12.19-3.96-3.32-6.93-7.83-10.96-12.5Z"/><path class="cls-1" d="M117,2.78c2.55,0,5,0,7.46,0,22.13,0,44.27,.12,66.4-.07,3.88-.03,4.94,1.2,4.75,4.84-.27,4.98-.31,9.99-.07,14.96,.19,3.98-.92,5.58-5.29,5.47-12.31-.3-24.63,.03-36.94-.21-4.22-.08-5.98,1-5.85,5.55,.39,13.99-1.53,11.4,11.64,11.58,7.99,.11,15.98,.1,23.96-.02,3.13-.04,4.57,.98,4.4,4.32-.22,4.31-.21,8.65-.03,12.97,.14,3.41-1.06,4.72-4.6,4.65-9.81-.19-19.64,.06-29.45-.16-4.16-.09-5.94,1-5.92,5.57,.08,13.75-.09,13.75,13.56,13.73,9.82-.01,19.64,.13,29.45-.09,3.78-.08,4.99,1.29,4.84,4.93-.23,5.31-.19,10.65-.02,15.96,.11,3.34-.91,4.71-4.53,4.69-23.3-.14-46.6-.09-69.89-.06-2.53,0-4.46,.05-4.45-3.53,.11-34.27,.08-68.53,.1-102.8,0-.62,.25-1.25,.48-2.31Z"/><path class="cls-1" d="M194.92,177.09c0-16.47,.08-32.93-.07-49.4-.03-3.59,.9-4.96,4.76-4.93,22.63,.16,45.26,.14,67.89,0,3.58-.02,4.67,1.25,4.55,4.63-.19,5.32-.3,10.66,.01,15.96,.22,3.77-1.08,4.98-4.78,4.93-11.81-.16-23.63,.11-35.44-.16-4.67-.11-6.04,1.55-5.91,6.08,.36,12.98-1.3,11.11,11.15,11.22,7.82,.07,15.65,.26,23.46-.08,4.3-.19,5.55,1.33,5.23,5.4-.3,3.8-.26,7.66,.03,11.47,.29,3.86-.94,5.29-5.01,5.17-9.81-.28-19.63,.02-29.45-.16-3.71-.07-5.37,.89-5.43,4.98-.21,13.71-.35,13.7,13.41,13.7,9.82,0,19.64,.19,29.45-.09,4.09-.11,5.22,1.35,5.04,5.2-.26,5.48-.18,10.98-.03,16.46,.08,2.94-.81,4.06-3.96,4.04-23.63-.13-47.26-.15-70.88,0-3.61,.02-4.05-1.57-4.04-4.52,.08-16.63,.04-33.26,.04-49.9Z"/><path class="cls-1" d="M32.84,231.43c-10.52,0-20.16,.09-29.79-.13-.99-.02-2.1-1.8-2.85-2.96-.38-.59-.08-1.62-.08-2.45,0-32.12,.11-64.24-.12-96.35-.04-5.08,1.42-6.51,6.46-6.45,22.14,.27,44.28,.23,66.43,.1,3.67-.02,5.1,1.03,4.96,4.79-.22,5.82-.3,11.66,.03,17.47,.24,4.19-1.53,5.01-5.27,4.94-11.32-.21-22.64,.03-33.96-.2-4.16-.08-5.93,.96-5.93,5.54,0,14.75-.17,14.75,14.55,14.75,5.49,0,10.99,.13,16.48-.05,3.29-.11,4.92,.68,4.69,4.43-.31,5.14-.28,10.32-.05,15.47,.15,3.17-1.02,3.99-4.03,3.94-8.99-.15-17.98,.09-26.97-.08-3.54-.07-4.65,1.32-4.59,4.7,.14,8.82,.04,17.64,.04,26.46,0,1.79,0,3.58,0,6.08Z"/><path class="cls-1" d="M369.92,110.67c-1.83,.18-3.11,.4-4.4,.41-22.13,.02-44.26-.04-66.39,.09-3.33,.02-4.78-.77-4.77-4.4,.09-32.58,.17-65.16-.09-97.74-.04-5.1,1.27-6.66,6.36-6.33,6.96,.46,13.98,.36,20.95,.03,4.26-.2,5.71,.86,5.66,5.45-.24,23.11-.1,46.23-.08,69.35,0,6.32,.13,6.41,6.43,6.41,10.48,0,20.97,.13,31.44-.06,3.59-.07,5.09,.86,4.95,4.72-.27,7.27-.08,14.55-.08,22.08Z"/><path class="cls-1" d="M207.96,56.91c0-16.3,.11-32.6-.08-48.9-.05-4.14,1.17-5.49,5.38-5.29,7.3,.35,14.65,.38,21.95,0,4.37-.22,5.69,.98,5.65,5.47-.23,23.12,.02,46.24-.23,69.35-.06,5.11,1.56,6.62,6.56,6.45,10.14-.35,20.3,.1,30.44-.22,4.52-.14,5.77,1.43,5.53,5.72-.33,5.8-.19,11.64-.03,17.46,.08,3-1.02,4.19-4.03,4.17-22.63-.09-45.26-.13-67.89-.07-3.84,.01-3.23-2.53-3.23-4.76-.03-16.47-.02-32.93-.02-49.4Z"/></g></g></svg>