<?xml version="1.0" encoding="UTF-8"?><svg id="Layer_2" xmlns="http://www.w3.org/2000/svg" viewBox="0 0 455.15 231.18"><defs><style>.cls-1{fill:#7a7a7a;}</style></defs><g id="Layer_1-2"><g><path class="cls-1" d="M192.09,.28h30.6V190.12h-28.67c-.23-2.81-.46-5.56-.8-9.62-1.97,1.88-3.31,3.14-4.64,4.42-13.86,13.4-33.92,10.55-41.01-7.25-4.63-11.63-6.89-24.57-8.06-37.13-1.7-18.36-1.33-36.92,2.99-55.05,1.35-5.67,3.28-11.36,5.95-16.52,8.56-16.56,26.38-20.02,40.9-8.33,.61,.49,1.27,.92,2.74,1.98V.28Zm.2,122.6c0-12.97-.16-25.95,.08-38.92,.09-4.86-1.59-7.86-6.4-8.7-4.88-.86-9.04,.16-10.62,5.55-.9,3.08-1.89,6.27-1.98,9.44-.5,16.4-1.02,32.81-.94,49.21,.04,8.05,1.02,16.15,2.25,24.12,.8,5.18,4.7,7.27,9.94,6.42,4.97-.81,7.93-2.95,7.77-8.8-.34-12.76-.11-25.54-.1-38.31Z"/><path class="cls-1" d="M341.25,59.78c6.36-10.45,14.47-17.78,27.24-19.71v26.24c-3.03-.16-6.02-.66-8.92-.36-2.87,.3-5.66,1.41-9.34,2.4,8.58,12.12,10.79,24.51,8.32,37.87-4.26,23.05-22.65,36.46-45.87,33.59-1.98-.24-5.94,1.19-5.94,1.84,0,2.73,.33,6.44,2.11,7.94,2.62,2.21,6.5,3.14,9.98,4.09,8.61,2.34,17.49,3.82,25.91,6.68,17.47,5.92,24.91,17.09,24.23,34.87-.61,15.82-10.86,28.43-26.99,32.87-13.98,3.85-28.28,4.36-42.07,.15-7.09-2.16-14.34-6.15-19.65-11.25-9.31-8.94-7.38-21.76,3.32-29.25,4.23-2.96,9.01-5.13,13.69-7.75-23.14-8.97-23-32.35-.35-46.78-8.86-6.62-13.69-15.51-14.93-26.18-1.33-11.43-1.04-22.66,4.6-33.19,11.27-21.06,37.53-25.15,54.66-14.07Zm-8.92,37.57c-1.18-6.2-1.62-12.37-3.73-17.91-1.02-2.68-5.23-5.87-7.89-5.77-3.01,.11-7.52,3.03-8.56,5.78-4.38,11.65-4.38,23.82,.07,35.47,1.01,2.65,5.34,5.55,8.15,5.56,2.78,0,7-2.93,8.05-5.59,2.19-5.49,2.7-11.65,3.91-17.55Zm-10.31,113.28c4.4-1.21,10.49-2.1,15.86-4.55,5.85-2.67,6.9-9.71,2.99-13.7-8.43-8.6-28.31-8.77-36.98-.31-5.61,5.48-4.13,13.54,3.28,15.95,4.17,1.36,8.72,1.58,14.84,2.61Z"/><path class="cls-1" d="M76.72,66.54c7.21-4.02,13.63-8.95,20.9-11.37,14.79-4.93,26.36,3.13,28.27,18.53,.37,3.01,.44,6.07,.44,9.11,.03,33.27,.01,66.54,0,99.82,0,2.39,0,4.79,0,7.61h-30.98c0-2.63,0-5,0-7.37,0-28.81,0-57.62-.02-86.43,0-2.63-.01-5.29-.37-7.89-.9-6.56-3.82-9.18-9.39-8.75-6.26,.49-9.19,3.7-9.19,10.23-.02,30.84,0,61.68,0,92.51,0,2.39,0,4.79,0,7.66h-30.96c-.12-2.33-.31-4.31-.31-6.29-.02-40.37,.08-80.75-.13-121.12-.03-5.28,1.25-7.18,6.75-6.85,7.87,.47,15.8,.12,24.17,.12,.31,3.99,.59,7.54,.81,10.48Z"/><path class="cls-1" d="M455.15,122.97c-.05,15.7-1.17,31.23-7.65,45.83-6.89,15.51-18.33,24.34-35.93,24.07-17.13-.26-28.1-9.37-34.49-24.4-7.89-18.57-8.93-38.29-6.89-57.96,1.18-11.33,3.68-22.88,7.79-33.48,6.06-15.65,18.57-23.64,35.75-23.14,16.75,.49,27.45,9.66,33.91,24.43,6.23,14.23,7.42,29.35,7.51,44.64Zm-32.67,.52c-.25,0-.51-.02-.76-.03,0-7.49,.29-15-.09-22.47-.31-6.04-1.24-12.07-2.26-18.04-.63-3.67-2.98-7.06-6.92-6.04-2.74,.71-5.01,3.75-7.14,6.07-.83,.9-.94,2.69-.95,4.07-.1,24.05-.32,48.1,0,72.15,.06,4.88,1.25,11.08,8.01,11.02,7.13-.06,7.65-6.5,8.09-11.59,1-11.68,1.39-23.42,2.03-35.13Z"/><path class="cls-1" d="M0,.34H30.16V147.5H0V.34Z"/><path class="cls-1" d="M239.52,56.43h30.41V190.26h-30.41V56.43Z"/><path class="cls-1" d="M239.46,30.24V.02c9.58,0,18.82-.09,28.05,.14,.94,.02,2.6,1.96,2.63,3.04,.21,8.84,.12,17.69,.12,27.05h-30.8Z"/><path class="cls-1" d="M0,159.71c9.48,0,18.38-.12,27.27,.15,1.1,.03,3.04,2.1,3.08,3.27,.26,8.87,.14,17.75,.14,27.08H0v-30.5Z"/></g></g></svg>